<?xml version="1.0" encoding="utf-8"?>
<svg xmlns="http://www.w3.org/2000/svg" xmlns:xlink="http://www.w3.org/1999/xlink" version= "1.1" width="1024px" height="1024px" viewBox="-112 92 1024 1024">
<g id="layer1">
<g style="fill:rgb(255,255,255); fill-opacity:1.0; stroke-linejoin: miter">
<path d="M642.5825,344.43683C640.2494,344.06494,636.1876,344.1622,632.7859,344.32104C629.38416,344.4799,626.5524,344.63373,624.1854,344.74722C621.8184,344.86072,619.8339,344.91418,618.1319,344.938C616.4299,344.9618,614.9224,344.9345,612.846,344.80533C610.7696,344.67615,608.1152,344.50284,605.4303,344.25607C602.74536,344.00934,599.93286,343.5567,596.8675,342.89853C593.8021,342.24033,590.39545,341.35806,586.51904,340.2974C582.6426,339.2367,578.17487,338.07797,574.57434,336.93716C570.9738,335.79633,570.9738,335.79633,573.2972,336.74747C573.2972,336.74747,577.7131,339.22153,581.6471,341.2837C585.58105,343.34586,589.1495,344.9498,592.4258,346.21698C595.702,347.48416,598.7612,348.47284,601.7103,349.18723C604.65936,349.90158,607.56915,350.37454,610.51294,350.44083C613.45667,350.50714,615.04535,350.41595,616.7162,350.2615C618.387,350.10706,620.2453,349.8786,622.38855,349.54028C624.53174,349.20197,627.0433,348.75116,630.02515,348.15125C633.00696,347.55133,636.5382,346.75528,638.4635,345.91568C642.62805,344.76538,640.34326,344.7475,642.5825,344.43683 Z"/>
</g>
<g style="fill:rgb(255,255,255); fill-opacity:1.0; stroke-linejoin: miter">
<path d="M647.2316,342.28745C646.4366,339.27612,643.7719,334.45422,640.8631,330.55063C637.9543,326.64706,634.89606,323.55386,631.7216,321.20337C628.5472,318.85287,625.30756,317.1612,622.0211,316.1885C618.7346,315.2158,615.4907,314.91772,612.47754,315.0413C609.4643,315.16486,606.6796,315.59875,604.0353,316.29425C601.39087,316.98975,598.90466,317.9028,596.5969,318.9811C594.28925,320.05945,592.1793,321.26926,590.2936,322.5685C588.4078,323.86774,586.7737,325.22885,585.9075,326.0438C585.04126,326.85876,584.75305,327.146,584.453,327.46518C584.153,327.7844,583.8373,328.13068,583.5029,328.501C583.16864,328.87134,582.7652,329.2056,582.45215,329.46844C582.13916,329.7313,582.13916,329.7313,582.34784,329.55606C582.34784,329.55606,582.7652,329.2056,583.1853,328.9086C583.60535,328.61163,584.0299,328.37238,584.4285,328.1547C584.82715,327.93704,585.19934,327.74084,585.5404,327.56247C585.8815,327.3841,587.6267,326.5065,589.5337,325.63577C591.44073,324.76508,593.5027,323.93686,595.6906,323.18512C597.87854,322.43338,600.1749,321.79776,602.5548,321.3275C604.9347,320.85727,607.37604,320.58997,609.8449,320.54788C612.3138,320.5058,614.9817,320.75958,617.6372,321.35544C620.2928,321.95132,623.0445,322.74963,625.9053,324.08133C628.766,325.41302,631.73846,327.39005,634.86,330.09033C637.98145,332.79062,641.25934,336.3058,643.3433,338.11047C646.94684,342.4576,645.7121,339.745,647.2316,342.28745 Z"/>
</g>
<g style="fill:rgb(255,255,255); fill-opacity:1.0; stroke-linejoin: miter">
<path d="M658.51996,284.96918C658.01227,283.96655,656.53705,282.3156,654.7435,280.8361C652.9501,279.35657,650.8623,278.0549,648.5045,276.92776C646.14667,275.8006,643.5326,274.8387,640.5192,273.9664C637.50586,273.09412,634.1008,272.3128,630.55304,271.6987C627.00525,271.08463,623.31476,270.6563,619.48535,270.41803C615.65594,270.17975,611.69025,270.11282,608.39746,270.21664C605.1047,270.32047,602.55945,270.51678,599.9459,270.92715C597.33246,271.33752,594.6568,271.9434,591.9072,272.663C589.15765,273.38257,586.3345,274.21985,584.3114,274.85873C582.2883,275.49765,580.0815,276.2617,576.55493,277.58987C573.0283,278.9181,568.15,280.8453,561.9284,283.4299C555.7068,286.01447,548.1967,289.41965,541.8761,292.25876C535.55554,295.0979,535.55554,295.0979,539.89655,293.56708C539.89655,293.56708,548.9605,291.59122,556.4347,289.61124C563.90894,287.63123,569.8932,285.9313,574.42444,284.6306C578.9556,283.32993,582.0385,282.48392,583.6732,282.0904C585.3079,281.69687,588.17554,281.0243,590.87897,280.44827C593.5824,279.87222,596.1849,279.4009,598.6846,279.02808C601.1843,278.65524,603.5641,278.2494,605.83185,277.93616C608.0996,277.62292,611.9351,277.28983,615.65155,277.12607C619.368,276.96228,622.9605,276.96088,626.4334,277.1025C629.9063,277.2441,633.2612,277.54718,636.5161,278.00626C639.77106,278.4653,642.4542,278.9294,644.8927,279.5187C647.3312,280.10803,649.5653,280.83884,651.6117,281.71176C653.65814,282.58466,655.53375,283.6042,656.5405,284.03152C658.28436,285.2027,657.78284,284.2253,658.51996,284.96918 Z"/>
</g>
<g>
<g style="fill:rgb(254,254,254); fill-opacity:1.0; stroke-linejoin: miter">
<path d="M40.857548,718.6893L44.94321,781.72485L8.950685,781.72485L40.857548,718.6893 Z M28.211582,692.23004L-40.27149,823.9431L-11.672029,823.9431L-1.5552065,803.5149L45.91596,803.5149L47.277836,823.9431L77.044624,823.9431L66.927864,692.23004 Z M111.09166,725.4988L90.2743,823.9431L117.51189,823.9431L132.10347,754.4873Q132.88167,751.1799,134.43813,750.01245Q135.79994,749.03973,138.71828,749.03973L178.01814,749.03973L183.07664,725.4988L154.47716,725.4988Q148.0569,725.4988,143.38762,728.02795Q138.91283,730.55707,135.21632,736.1993L137.55101,725.4988 Z M216.92911,725.4988Q206.42322,725.4988,201.36472,730.168Q196.50089,734.83734,194.36081,744.7596L181.71474,804.68225Q180.74199,809.54614,180.74199,812.2699Q180.74199,818.301,184.43858,821.21936Q187.94048,823.9431,196.11182,823.9431L265.5676,823.9431L270.626,799.4292L215.17813,799.4292Q210.70328,799.4292,210.70328,796.511Q210.70328,795.92737,210.89786,795.3437Q210.89786,794.76,211.09244,793.98175L219.45828,754.68176Q220.23654,751.3744,221.40384,750.4016Q222.5712,749.4289,225.87863,749.4289L281.3265,749.4289L286.38492,725.4988 Z M365.5684,692.23004L337.74716,823.9431L426.07483,823.9431L431.7168,797.2892L372.96158,797.2892L395.1407,692.23004 Z M466.3476,725.4988L461.87274,746.89966L528.6048,746.89966Q531.32855,746.89966,532.3014,747.8725Q533.2742,748.65063,533.2742,750.20703Q533.2742,751.569,533.0796,752.3471L522.76825,800.5967L477.2426,800.5967Q473.54608,800.5967,473.54608,798.0673Q473.54608,797.48376,473.7406,796.9001Q473.7406,796.3164,473.93518,795.3437L476.07526,785.0323Q476.6588,781.91943,477.82623,780.9467Q478.99347,779.9739,481.71735,779.9739L517.51526,779.9739L521.01715,763.2422L471.01685,763.2422Q466.3476,763.2422,463.0401,764.2149Q459.73267,764.99316,457.398,767.13324Q455.06348,769.2734,453.50696,772.97Q451.95056,776.66644,450.7832,782.11395L445.91937,805.4605Q444.94653,809.93524,444.94653,812.65894Q444.94653,818.301,448.25397,821.21936Q451.56146,823.9431,458.9544,823.9431L544.7528,823.9431L561.48444,744.7596Q562.4573,739.89575,562.4573,737.172Q562.4573,731.14075,558.95526,728.22253Q555.4533,725.4988,546.893,725.4988 Z M594.5587,684.2533L564.98645,823.9431L592.4186,823.9431L621.99084,684.2533 Z M659.15063,725.4988L607.983,773.55365L605.8429,783.4759L644.75366,783.4759Q648.06104,783.4759,649.423,784.4486Q650.7848,785.4213,650.7848,787.756Q650.7848,788.53424,650.59033,789.507Q650.59033,790.2853,650.39575,791.258L643.5863,823.9431L670.824,823.9431L678.8006,785.81055Q679.57886,782.11395,679.57886,778.61206Q679.57886,764.99316,664.79266,764.99316L645.92096,764.99316L689.112,725.4988 Z M728.412,725.4988Q717.7114,725.4988,712.653,730.168Q707.7891,734.83734,705.6492,744.7596L693.0032,804.68225Q692.0302,809.54614,692.0302,812.2699Q692.0302,818.301,695.7268,821.21936Q699.22894,823.9431,707.5946,823.9431L787.362,823.9431L792.0312,801.5694L725.68835,801.5694Q723.15906,801.5694,722.18616,800.9857Q721.21344,800.4021,721.21344,798.65106Q721.21344,798.0673,721.408,797.2892Q721.408,796.7055,721.60254,795.7327L730.7466,753.3198Q731.5248,750.01245,732.69214,748.8452Q733.8595,747.8725,737.1669,747.8725L776.2723,747.8725Q778.607,747.8725,779.5798,748.45605Q780.35785,749.03973,780.35785,750.5962Q780.35785,752.15265,780.16327,753.12537L777.2452,766.355L737.5559,766.355L734.24854,782.69763L799.8132,782.69763L807.9847,743.9813Q808.76276,740.2848,808.76276,736.78284Q808.76276,731.14075,805.4555,728.22253Q802.34247,725.4988,794.9495,725.4988 Z"/>
</g>
</g>
<g style="fill:rgb(255,255,255); fill-opacity:1.0; stroke-linejoin: miter">
<path d="M940.4995,-497.9348L940.49493,-497.8611Q940.6097,-496.78833,938.58685,-490.28876L933.1711,-474.0176Q932.3421,-471.5058,931.58655,-468.82266L929.9009,-462.47202L927.2122,-452.67902Q927.0557,-452.21292,926.3288,-448.42657Q926.1583,-447.66177,926.31934,-446.95325Q926.213,-446.4957,926.05865,-446.1768Q928.14606,-448.63156,931.9938,-456.7Q935.7332,-464.73242,937.0619,-469.39792Q938.8426,-476.18042,940.3209,-486.79147Q940.63617,-489.24063,940.68506,-491.84113Q940.7037,-493.05884,940.6729,-494.11633Q940.486,-497.25534,940.4995,-497.9348"/>
</g>
<g style="fill:rgb(255,255,255); fill-opacity:1.0; stroke-linejoin: miter">
<path d="M681.35004,185.97144C681.6232,185.95665,682.1463,185.83757,682.6682,185.72269C683.1901,185.6078,683.69635,185.50954,684.17017,185.45102C684.644,185.39249,685.0703,185.38649,685.4315,185.44685C685.79266,185.50722,686.0829,185.63223,692.12683,189.88043C698.1707,194.12862,708.827,203.21571,717.65955,213.3803C726.492,223.54488,733.497,234.43692,738.7095,245.51755C743.922,256.59818,747.34265,267.4372,748.79785,277.49054C750.25305,287.54388,749.7633,296.27808,747.1854,306.9703C744.60754,317.66254,743.5678,331.028,744.9925,343.5805C746.4172,356.133,749.1539,367.97473,751.8391,379.28876C754.52435,390.6028,756.14813,401.5214,755.56165,412.26282C754.9751,423.0042,751.2637,433.9144,742.4083,447.71802C733.55304,461.52164,724.0598,475.9411,716.6721,487.71948C709.2844,499.4979,703.57556,508.77414,699.0414,515.6903C694.5072,522.60645,690.8047,527.2534,687.60785,529.87244C684.411,532.4915,681.2335,533.5924,677.27814,533.67426C673.32275,533.7561,668.95355,533.13385,664.15247,531.8686C659.3513,530.60333,654.0987,528.6851,648.37354,526.1117C642.64844,523.53827,636.43396,520.3142,629.7057,516.449C622.9774,512.58374,615.71356,508.08636,605.4291,501.60526C595.14465,495.12415,584.13184,487.86478,575.52185,481.86426C566.91187,475.8637,560.35724,471.0064,555.4065,467.17114C550.45575,463.3359,546.73474,460.44473,543.79663,458.41022C540.8585,456.3757,538.3992,455.14893,536.7542,454.43024C535.10925,453.71155,535.10925,453.71155,536.16986,454.25C536.16986,454.25,538.183,455.50488,540.20215,457.60016C542.2214,459.69547,544.79626,462.56467,548.40125,466.37006C552.00616,470.17545,557.01105,474.99377,563.8364,480.95117C570.6618,486.90854,579.6764,494.06723,591.3375,502.48926C602.99866,510.91132,610.69525,516.03326,617.9471,520.4221C625.1989,524.81104,631.9774,528.58923,638.3294,531.74585C644.6814,534.90247,650.64667,537.42694,656.27747,539.30066C661.9082,541.17444,667.2463,542.3763,672.39746,542.8673C677.5486,543.3583,683.21387,542.78015,688.3039,540.28625C693.3939,537.7924,697.7986,533.5322,702.1846,527.5746C706.5705,521.61694,711.55164,513.7459,717.7781,503.65778C724.00446,493.56964,731.9501,481.04797,742.2456,465.76254C752.5411,450.4771,759.8031,437.84048,762.81586,425.32074C765.8286,412.80103,765.51117,400.70322,763.3429,388.9883C761.1747,377.2734,758.2911,365.77313,755.9972,354.27316C753.70337,342.7732,752.96625,331.1076,755.0121,318.74945C757.05786,306.3913,759.0736,297.5647,758.9145,287.03116C758.7554,276.49762,756.4386,265.07086,752.0078,253.28098C747.577,241.49109,740.9124,229.88394,732.1815,219.04987C723.4506,208.21579,712.70776,198.68413,700.0233,191.32278C687.3388,183.96143,686.6686,183.73471,686.0613,183.70988C685.45404,183.68506,684.8843,183.78389,684.3506,183.96394C683.8169,184.144,683.3138,184.3838,682.8335,184.65576C682.3533,184.9277,681.8909,185.21175,681.68066,185.39029C681.2299,185.66223,681.5905,185.87804,681.35004,185.97144 Z"/>
</g>
<g style="fill:rgb(255,255,255); fill-opacity:1.0; stroke-linejoin: miter">
<path d="M546.6456,429.7688C543.8523,432.07993,539.5871,436.2595,535.751,438.91608C531.91486,441.57266,528.3339,442.9016,524.7488,443.2107C521.16364,443.51978,517.3375,442.98865,513.0839,441.74725C508.83032,440.50583,504.06998,438.688,496.94388,435.18152C489.81778,431.67502,482.1542,425.15848,476.45514,417.0006C470.7561,408.84277,466.88123,399.8101,465.00604,390.8293C463.13083,381.84854,463.28217,373.81805,465.29767,367.88428C467.31317,361.9505,470.90536,358.704,473.9458,357.99585C476.98624,357.28766,478.1859,357.38983,479.51703,357.64728C480.84818,357.9047,482.30405,358.36203,483.89014,359.01233C485.47623,359.6626,487.1839,360.5302,489.0197,361.61182C490.8555,362.6934,492.83475,363.97913,494.36426,365.04373C495.89377,366.10834,496.82037,366.72955,497.6462,367.25116C498.47205,367.77274,499.19006,368.20233,499.80096,368.53735C500.41187,368.8724,500.90775,369.12152,501.25958,369.33127C501.61142,369.54102,501.85773,369.66248,501.9934,369.7041C502.12906,369.7457,502.12906,369.7457,502.0386,369.71796C502.0386,369.71796,501.85773,369.66248,501.5788,369.50793C501.2999,369.35336,500.939,369.07703,500.52612,368.6464C500.11325,368.21576,499.62183,367.66992,499.04327,367.01773C498.46472,366.36554,497.80145,365.60345,497.0423,364.7331C496.28314,363.86276,494.5109,361.97516,492.7383,360.34683C490.96573,358.7185,489.21783,357.33728,487.48975,356.2071C485.76163,355.0769,484.06607,354.17154,482.39557,353.50198C480.7251,352.83243,479.0866,352.37646,477.2485,352.17868C475.4104,351.9809,468.35184,353.3093,463.2575,358.8838C458.16318,364.4583,455.78064,372.71832,455.80908,382.46393C455.8375,392.2095,458.2671,402.66708,463.24414,412.76376C468.22122,422.86044,475.88638,431.5883,485.90906,437.72656C495.9317,443.86484,501.5717,445.76074,506.59708,447.1421C511.62247,448.52347,516.395,449.3086,520.9945,449.1997C525.59393,449.0908,530.00385,447.84814,534.13007,445.25812C538.2563,442.66806,542.07623,438.61722,543.49023,435.7434C546.91846,429.95752,544.6314,432.68088,546.6456,429.7688 Z"/>
</g>
<g style="fill:rgb(217,0,254); fill-opacity:1.0; stroke-linejoin: miter">
<path d="M716.1899,239.92479C714.18195,236.7509,709.30023,231.92787,704.357,227.99966C699.41376,224.07146,694.49426,220.92267,689.6384,218.4668C684.78253,216.01093,679.99994,214.21492,675.31055,213.02293C670.62115,211.83095,666.0408,211.19275,660.4801,211.29149C654.9195,211.39024,648.5923,212.56767,642.7268,214.52858C636.86127,216.48949,631.4504,219.04561,626.48645,222.00401C621.5225,224.9624,616.99646,228.1682,612.90784,231.45271C608.8193,234.73723,605.1842,237.99785,603.4608,239.65764C601.73737,241.31743,601.60236,241.44952,601.45337,241.5947C601.30444,241.73987,601.1326,241.88518,600.93304,242.02351C600.73346,242.16187,600.5183,242.31067,600.3491,242.4275C600.17993,242.54433,600.17993,242.54433,600.2927,242.46645C600.2927,242.46645,600.5183,242.31067,600.7283,242.16536C600.93823,242.02003,601.1326,241.88518,601.32745,241.7838C601.5223,241.6824,601.7043,241.5953,601.8694,241.51588C602.0344,241.43648,606.1489,239.35188,610.47437,236.88951C614.79974,234.42712,619.3584,231.82408,624.1606,229.31935C628.96277,226.81462,634.00824,224.58104,639.2881,222.81874C644.568,221.05643,650.0669,219.88014,655.8367,219.4584C661.6065,219.03667,665.4734,219.05643,669.5896,219.51245C673.7059,219.96848,678.019,220.89754,682.5415,222.38234C687.0641,223.86716,691.8218,225.92612,696.8235,228.63805C701.82513,231.34998,707.1092,234.72685,710.209,236.23898C715.9666,240.17012,713.53204,237.50578,716.1899,239.92479 Z"/>
</g>
<g style="fill:url(#grad0); fill-opacity:1.0; stroke-linejoin: miter">
<path d="M602.35144,208.46175C558.2583,251.68967,698.4978,660.59564,423.75388,660.59564C420.87683,660.59564,417.95428,660.5508,414.98557,660.4602C419.76242,659.738,423.40674,658.0349,427.68555,655.71204C646.7637,536.7777,526.23505,332.5163,584.11035,235.44104L602.35144,208.46175 Z"/>
</g>
<g style="fill:url(#grad1); fill-opacity:1.0; stroke-linejoin: miter">
<path d="M741.8848,230.43906L725.11536,206.91055C700.52264,178.3105,670.75415,168.90865,627.1607,168.90865C624.7691,168.90865,622.33594,168.93694,619.8597,168.99191C582.0082,169.83228,557.4477,174.40991,544.73694,180.24707C526.4302,188.65408,508.90326,198.58994,495.23886,214.6181C472.44467,241.35541,458.96997,275.34152,452.4,314.92938C449.80493,330.5661,447.4922,346.70242,446.65588,363.46844C441.8665,459.4846,439.48572,507.50723,438.9134,507.50723C438.8976,507.50723,438.8832,507.4708,438.87018,507.3979C436.92175,529.48267,433.59378,548.39355,428.88617,564.1307C424.17862,579.86755,418.15854,591.0962,412.54395,599.11566C407.39807,606.46564,390.1792,623.80664,359.0747,649.97473C540.3552,601.4902,521.1855,199.32645,648.6934,199.32645C659.2965,199.32645,670.9138,202.10739,683.73773,208.10667C719.41376,229.93987,719.4305,229.94957,719.43164,229.94957C719.43164,229.94957,719.43164,229.94957,719.43164,229.94957C719.44617,229.94957,720.8498,231.50203,722.2578,233.12451 Z"/>
</g>
<g style="fill:url(#grad2); fill-opacity:1.0; stroke-linejoin: miter">
<path d="M557.73676,177.1072C570.46295,175.46567,582.8338,174.51611,594.7922,174.51611C667.54846,174.51611,725.0361,209.66566,754.39636,337.9791C760.24225,359.5779,763.8387,380.0243,764.3272,383.87665L772.2584,415.67484C774.39557,429.98358,783.90924,458.80215,786.55225,469.0954C788.3424,476.06705,792.081,486.83646,797.7218,501.43793C799.4148,505.8204,808.1035,525.33704,823.95703,559.9238L830.2745,575.9308C833.5674,584.541,837.464,605.2295,841.96423,637.9962C843.60815,615.0122,842.546,594.362,838.3734,576.1366C836.6516,568.61597,833.56665,560.0333,829.52185,550.2925L802.5489,488.83533C799.80273,481.1504,797.7761,474.31256,796.23663,468.38058C793.4865,457.78378,790.49554,445.31558,788.7555,430.7459C774.80444,314.82773,765.32623,172.27448,638.8499,169.29552C619.61884,169.17274,610.10187,169.35132,599.2003,169.77515C575.2578,170.706,561.45166,173.47865,557.73676,177.1072 Z"/>
</g>
<g style="fill:rgb(255,255,255); fill-opacity:1.0; stroke-linejoin: miter">
<path d="M703.0804,300.0663C704.7069,299.48456,707.3172,297.8734,709.55707,296.34546C711.79694,294.8175,713.7493,293.4615,715.4863,292.3467C717.22327,291.23196,718.80237,290.4066,720.3021,289.89966C721.80194,289.39273,723.31165,289.18414,724.6502,289.10425C725.9888,289.02435,727.1409,289.07825,728.4303,289.2822C729.7197,289.4861,731.1589,289.8508,732.7577,290.40063C734.35645,290.95047,736.1215,291.7031,738.077,292.65298C740.0325,293.60284,742.18616,294.7692,743.58887,295.54227C744.9916,296.31537,745.4727,296.59387,745.95874,296.88773C746.4447,297.18158,746.9376,297.48874,747.4334,297.81393C747.9292,298.13916,748.3686,298.543,748.69025,298.86154C749.0119,299.18008,749.0119,299.18008,748.7975,298.9677C748.7975,298.9677,748.3686,298.543,747.9758,298.09375C747.58307,297.6445,747.214,297.17953,746.83813,296.73032C746.4622,296.28107,746.07526,295.8526,745.6803,295.43735C745.2853,295.02206,743.349,293.14474,741.4553,291.59314C739.5616,290.04153,737.74176,288.77,735.9986,287.74936C734.25543,286.7287,732.58636,285.9423,730.9896,285.36078C729.3928,284.77927,727.8593,284.41132,726.35986,284.22055C724.8605,284.02982,722.641,284.15704,720.5853,284.83487C718.5297,285.51266,716.67566,286.53427,714.94507,287.83707C713.2144,289.13983,711.50507,290.6754,709.71533,292.446C707.92554,294.21664,705.9693,296.2209,705.0757,297.51523C702.87933,299.80246,704.3831,299.0734,703.0804,300.0663 Z"/>
</g>
<g style="fill:rgb(255,255,255); fill-opacity:1.0; stroke-linejoin: miter">
<path d="M699.8951,358.2008C699.93744,360.0034,700.565,362.98944,701.1089,365.3539C701.65283,367.71838,702.0714,369.4729,702.33167,370.6133C702.592,371.75372,702.6696,372.19846,703.07874,373.61752C703.4878,375.03662,704.2689,377.43173,704.70667,378.2087C705.14435,378.98572,705.64233,379.75232,706.26605,380.61734C706.8898,381.4824,707.6486,382.44946,708.5376,383.53073C709.4266,384.61203,710.55634,385.91864,711.3906,386.6644C712.2249,387.41016,712.8912,388.05704,713.49426,388.6932C714.09735,389.32938,714.6375,389.95367,715.19293,390.50092C715.74835,391.04816,716.24164,391.62878,716.5196,391.97134C716.79755,392.3139,717.04755,392.68866,717.2841,393.12146C717.5207,393.5543,717.74115,394.04715,717.94226,394.6015C718.1433,395.15588,718.32355,395.74335,718.58093,396.99915C718.8383,398.25494,718.9738,399.63382,718.994,401.16537C719.0143,402.69693,718.91406,404.3802,718.6914,406.21344C718.4688,408.04666,718.1185,410.0049,717.631,412.12225C717.14343,414.23956,716.6577,416.0885,716.1963,417.67047C715.73486,419.2524,715.2614,420.56024,714.91345,421.42786C714.5655,422.29544,714.5655,422.29544,714.8975,421.77588C714.8975,421.77588,715.86176,420.91333,716.7433,419.65778C717.6249,418.4022,718.5349,416.84387,719.4391,414.97815C720.3433,413.11243,721.271,410.92618,721.9092,408.92383C722.5473,406.92145,723.0106,405.01062,723.3159,403.18164C723.6213,401.3527,723.7546,399.60245,723.7185,397.93002C723.6825,396.2576,723.477,394.72418,723.3071,393.88202C723.1372,393.03986,722.91815,392.2466,722.64716,391.48862C722.37616,390.73062,722.0506,390.00928,721.6673,389.32755C721.284,388.6458,720.87555,388.0512,720.3018,387.29718C719.7281,386.54318,719.11847,385.75714,718.3636,385.06482C717.6087,384.37247,716.7995,383.69318,715.93616,383.02548C715.07275,382.3578,714.3649,381.8796,713.3773,380.92035C712.3897,379.9611,711.49945,379.06158,710.76135,378.28177C710.0232,377.50195,709.432,376.85333,709.00995,376.33768C708.5879,375.82202,708.4313,375.6503,707.41064,373.48578C706.3901,371.32126,706.44525,371.4072,706.1548,370.57333C705.86426,369.7395,705.32263,368.41986,704.5205,366.55637C703.7183,364.69287,702.6152,362.29242,701.6914,361.00558C700.2088,358.09296,700.454,359.82657,699.8951,358.2008 Z"/>
</g>
<g style="fill:rgb(255,255,255); fill-opacity:1.0; stroke-linejoin: miter">
<path d="M707.6576,391.58453C707.68164,391.13943,707.427,390.2907,706.8937,389.4683C706.36035,388.64587,705.554,387.87982,704.49615,387.17862C703.4383,386.47742,702.14154,385.83005,700.92126,385.38086C699.701,384.9317,698.67725,384.68002,697.5816,384.5322C696.48596,384.38437,695.32214,384.32773,694.0939,384.37872C692.86566,384.42972,691.57263,384.56747,690.71454,384.6963C689.85645,384.82513,689.2516,385.0555,688.7211,385.35223C688.1907,385.64896,687.633,386.02066,687.01404,386.4898C686.3951,386.95895,685.6906,387.51743,684.85034,388.41772C684.01013,389.31805,683.5281,390.2345,682.77466,391.2467C682.02124,392.25894,681.08563,393.41803,679.96936,394.7155C678.8531,396.013,677.56366,397.45178,676.1891,398.90863C674.8146,400.36545,673.50995,401.67184,672.3557,402.84204C671.2015,404.01227,670.1851,405.03464,669.292,405.89557C668.3988,406.75653,667.60095,407.418,667.0177,407.75235C666.4345,408.0867,666.4345,408.0867,666.8233,407.8638C666.8233,407.8638,667.60095,407.418,668.61194,406.94983C669.623,406.48163,670.8039,405.8788,672.1384,405.12357C673.47296,404.36832,674.94794,403.44748,676.5703,402.3491C678.1926,401.2507,679.882,399.92206,681.3585,398.68945C682.83496,397.45685,684.1163,396.29822,685.2179,395.2216C686.3196,394.14496,687.2306,393.1314,687.8667,392.32285C688.5028,391.51428,688.93256,391.0524,689.463,390.519C689.9935,389.98563,690.42926,389.5894,690.7375,389.32538C691.0457,389.06137,691.1904,388.9548,691.1738,388.95544C691.1573,388.9561,692.3479,388.60532,693.4263,388.364C694.50464,388.12268,695.5165,387.96902,696.4629,387.88336C697.40924,387.79767,698.2931,387.7963,699.1161,387.8676C699.93915,387.93896,701.33746,388.21982,702.5091,388.55542C703.6807,388.89105,704.63824,389.27704,705.38477,389.73615C706.1312,390.19528,706.68896,390.73065,706.96497,391.00452C707.33545,391.66357,707.5631,391.19937,707.6576,391.58453 Z"/>
</g>
<g style="fill:rgb(255,255,255); fill-opacity:1.0; stroke-linejoin: miter">
<path d="M650.1757,464.34314C652.9769,464.83936,658.5005,464.7534,659.7257,464.48267C660.95087,464.21194,661.99506,463.9235,662.9509,463.58496C663.9068,463.2464,664.77924,462.864,665.574,462.43756C666.3687,462.0111,666.81555,461.72064,667.4939,461.40942C668.1723,461.09818,669.0717,460.51944,670.0405,459.7615C671.00934,459.00357,672.07385,458.0647,673.2323,456.92493C674.39075,455.7852,675.6333,454.48306,676.29126,453.78668C676.9492,453.09027,677.6312,452.29236,678.31195,451.42303C678.9927,450.55374,679.67346,449.6129,680.3476,448.59552C681.0217,447.57812,681.4784,446.84113,683.2958,444.8122C685.1131,442.7833,685.7954,442.20898,686.52673,441.6527C687.258,441.09644,687.84393,440.7182,688.2444,440.52332C688.6449,440.3284,688.80054,440.29706,688.8461,440.3363C688.8917,440.37555,688.7449,440.36542,688.53204,440.33337C688.3192,440.30133,688.3472,440.3228,688.51306,440.41583C688.67883,440.50882,688.9462,440.67087,689.13794,440.71454C689.3297,440.75824,692.16284,443.0024,693.72345,444.21786C695.28406,445.43332,695.64294,445.68277,696.0011,445.87128C696.3592,446.05975,696.71027,446.19833,697.05334,446.29953C697.39636,446.40073,697.73364,446.47073,698.77295,446.48743C699.81226,446.5041,701.1342,446.30188,702.3896,445.8651C703.64496,445.42834,704.8029,444.77087,705.85657,443.93738C706.9102,443.10388,707.8508,442.09958,707.6384,442.01398C707.426,441.92838,707.4257,441.91873,707.337,441.90808C707.2482,441.89746,707.08264,441.8613,706.8866,441.77457C706.6906,441.68784,706.5181,441.5598,707.36365,442.4707C708.20917,443.38156,710.03613,445.40363,711.7053,447.35767C713.3746,449.3117,714.90344,451.18625,716.2821,452.9915C717.6607,454.79672,718.8812,456.5393,719.72034,457.77014C720.5595,459.00098,721.0448,459.8431,721.5206,460.86453C721.9964,461.88596,722.4717,463.08203,722.93726,464.45392C723.40283,465.8258,723.8705,467.37085,724.0459,468.63257C724.2213,469.89426,724.2213,469.89426,724.1361,469.04947C724.1361,469.04947,724.06104,467.34894,724.07544,465.76715C724.08984,464.1854,723.99915,462.739,723.8059,461.4264C723.6126,460.11374,723.30725,458.93704,722.9205,457.90796C722.5337,456.8789,721.687,454.93445,720.6421,452.9079C719.5972,450.88138,718.37683,448.78622,716.9927,446.61755C715.6085,444.44888,714.05005,442.2162,712.3321,439.9079C710.61414,437.59958,710.05,437.05267,709.4907,436.725C708.9315,436.39734,708.31726,436.204,707.7115,436.14243C707.1057,436.08084,706.53656,436.1251,705.4791,436.5614C704.42175,436.99768,703.4647,438.00772,702.83136,438.51538C702.198,439.023,701.6015,439.37146,701.03357,439.57822C700.4657,439.78497,699.9162,439.89172,699.3043,439.89148C698.69244,439.89127,699.1012,439.91348,699.0774,439.90063C699.05365,439.8878,699.0743,439.889,699.1406,439.9141C699.207,439.93918,699.3174,439.9991,699.3906,440.0434C699.4638,440.08768,696.7566,437.58548,694.92737,436.02844C693.0981,434.4714,692.63983,434.12735,692.15936,433.89105C691.6789,433.65475,691.1965,433.4516,690.6521,433.28204C690.10767,433.11246,689.39514,433.0039,688.7269,433.0176C688.05865,433.0313,686.8932,433.27405,685.87683,433.72083C684.8604,434.16763,683.9228,434.76648,683.00256,435.50635C682.08234,436.24625,681.1482,437.12683,679.6776,438.88763C678.2071,440.64847,676.3718,443.063,675.732,444.24506C675.09216,445.42715,674.57715,446.35956,674.0674,447.2119C673.55756,448.0643,673.05383,448.83594,672.5577,449.5269C672.0615,450.21783,671.52026,450.88846,670.47675,452.19983C669.4332,453.51123,668.5149,454.5854,667.729,455.446C666.9431,456.30664,666.27997,456.9243,665.79236,457.30923C665.30475,457.69418,664.6267,458.03186,664.0435,458.51324C663.4603,458.99466,662.88947,459.38635,662.20215,459.78094C661.5148,460.17554,660.7149,460.57407,659.8053,460.9771C658.8956,461.38013,658.0654,461.7407,655.45605,462.72192C650.138,464.01355,652.88446,464.0327,650.1757,464.34314 Z"/>
</g>
<g style="fill:rgb(255,255,255); fill-opacity:1.0; stroke-linejoin: miter">
<path d="M713.6902,477.385C713.1378,478.24362,712.29205,479.79382,711.3811,480.99243C710.4702,482.191,709.4857,483.0702,708.44086,483.69635C707.396,484.32248,706.2777,484.73123,705.07495,484.9541C703.87225,485.177,702.5853,485.238,700.929,485.0935C699.2727,484.949,697.2017,484.71988,695.01624,484.3626C692.8307,484.0053,690.60455,483.48077,688.40955,482.86432C686.21454,482.24786,684.1127,481.58145,682.16205,480.9577C680.2114,480.33392,678.4845,479.77164,677.7041,479.48016C676.92377,479.1887,676.86646,479.2017,676.84515,479.2121C676.82385,479.22253,676.83856,479.23035,676.8892,479.23553C676.9399,479.24075,677.02655,479.24338,677.10956,479.24402C677.19257,479.24466,677.19257,479.24466,677.1372,479.24423C677.1372,479.24423,677.02655,479.24338,676.9519,479.2399C676.87726,479.23642,676.83856,479.23035,676.8359,479.22168C676.8332,479.21298,676.86646,479.2017,676.9357,479.1878C677.005,479.17392,678.3358,480.05783,679.898,481.16498C681.4602,482.27216,683.275,483.42783,685.3008,484.5345C687.3266,485.64114,689.51263,486.6584,691.80725,487.5152C694.1018,488.37204,696.4655,489.01712,698.8424,489.195C701.21924,489.37292,702.9022,489.20047,704.4836,488.8284C706.06494,488.45633,707.5408,487.8337,708.8635,486.94858C710.18634,486.06345,711.32227,484.91815,712.2074,483.49792C713.0925,482.0777,713.68854,480.38965,713.7295,479.4085C714.01196,477.46582,713.44867,478.34656,713.6902,477.385 Z"/>
</g>
<g style="fill:rgb(255,255,255); fill-opacity:1.0; stroke-linejoin: miter">
<path d="M704.49567,460.44446C704.213,460.6409,703.7179,461.05777,703.20355,461.40576C702.6892,461.75375,702.16016,462.0337,701.61707,462.24683C701.07404,462.45996,700.5113,462.59827,699.9287,462.67584C699.3461,462.75345,698.73334,462.751,698.0888,462.67242C697.4443,462.59387,696.76404,462.44403,695.989,462.37646C695.21405,462.30887,694.36536,462.12128,693.4311,461.83704C692.4968,461.55283,691.4791,461.1531,690.37213,460.63306C689.26514,460.113,688.0681,459.46204,687.4933,459.021C686.9184,458.57993,686.9077,458.57996,686.9024,458.57996C686.8971,458.57996,686.8971,458.58,686.9024,458.58C686.9077,458.58,686.9184,458.58,686.929,458.58C686.93964,458.58,686.93964,458.58,686.93256,458.58C686.93256,458.58,686.9184,458.58,686.90955,458.58C686.90063,458.58,686.8971,458.58,686.89886,458.57996C686.90063,458.57996,686.9077,458.57996,686.92017,458.57996C686.93256,458.57993,687.9863,459.5622,688.923,460.52142C689.8597,461.48062,690.79675,462.2877,691.7322,462.94745C692.6676,463.6072,693.5968,464.12708,694.516,464.50903C695.4352,464.891,696.3286,465.20288,697.21277,465.20163C698.097,465.20038,698.9257,465.08487,699.6907,464.8808C700.4556,464.6767,701.15155,464.37885,701.7728,463.997C702.39417,463.61517,702.9435,463.16626,703.41626,462.65356C703.88904,462.14084,704.2888,461.57547,704.426,461.24323C704.7624,460.64172,704.29645,460.71375,704.49567,460.44446 Z"/>
</g>
<g style="fill:rgb(255,255,255); fill-opacity:1.0; stroke-linejoin: miter">
<path d="M714.4185,349.03912C715.4177,347.30795,716.7696,343.9414,718.14197,340.98752C719.51434,338.03366,720.9382,335.53583,722.44366,333.5624C723.94916,331.58896,725.5151,330.1795,727.0857,329.30103C728.6564,328.42255,730.23145,327.8314,731.60675,327.6838C732.98206,327.53622,734.0482,327.6041,735.22144,327.84177C736.3947,328.07944,737.68054,328.48697,739.0773,329.08328C740.47406,329.6796,741.9852,330.46735,743.611,331.4561C745.2368,332.44485,746.9813,333.63754,748.14954,334.46414C749.3177,335.29077,749.80646,335.6665,750.3324,336.1103C750.8583,336.55408,751.41266,337.0721,752.00354,337.6566C752.5945,338.2411,753.18756,338.91458,753.56586,339.5046C753.94415,340.09467,753.94415,340.09467,753.69196,339.7013C753.69196,339.7013,753.18756,338.91458,752.7986,338.1229C752.40967,337.33118,752.0278,336.60007,751.63293,335.9423C751.23816,335.28455,750.837,334.69354,750.42676,334.17972C750.01654,333.66586,748.4955,331.91086,746.9586,330.40073C745.42175,328.89062,743.88403,327.62872,742.3705,326.5735C740.857,325.51825,739.3552,324.68198,737.8689,324.048C736.3826,323.414,734.9053,323.00217,733.3906,322.7917C731.8759,322.5812,729.24695,322.72647,726.7588,323.72794C724.27057,324.72943,722.18427,326.46893,720.48065,328.71957C718.77704,330.97018,717.40546,333.65686,716.327,336.73514C715.24854,339.8134,714.4731,343.2622,714.49255,345.17606C714.09467,348.96716,714.8359,347.16183,714.4185,349.03912 Z"/>
</g>
<g style="fill:rgb(255,255,255); fill-opacity:1.0; stroke-linejoin: miter">
<path d="M712.3053,349.0207C712.60114,349.23148,713.6306,349.81393,715.194,350.66623C716.75726,351.5185,718.78394,352.5048,721.1614,353.51895C723.5389,354.53308,726.18134,355.48334,728.9835,356.25894C731.78577,357.03452,734.69434,357.24408,736.9746,357.12985C739.2549,357.01566,740.9049,356.7325,742.44836,356.24426C743.99176,355.756,745.3923,355.04337,746.5993,354.09543C747.80634,353.14752,748.7555,351.94342,749.4076,350.51566C750.05975,349.0879,750.3819,347.4432,750.5241,346.57544C750.6663,345.70767,750.6827,345.72742,750.6898,345.7432C750.69696,345.759,750.6949,345.77084,750.68365,345.77875C750.6724,345.78665,750.65204,345.7906,750.6321,345.79156C750.6122,345.79254,750.6122,345.79254,750.6255,345.7919C750.6255,345.7919,750.65204,345.7906,750.66943,345.7853C750.68677,345.78006,750.6949,345.77084,750.69385,345.7577C750.6929,345.74454,750.6827,345.72742,750.66327,345.70636C750.64386,345.6853,750.12006,347.3665,749.288,348.64536C748.456,349.92422,747.5099,350.87177,746.46655,351.55295C745.4232,352.2341,744.2852,352.70523,743.0346,352.98087C741.784,353.2565,740.43396,353.3856,739.0094,353.35754C737.58484,353.3295,735.04834,353.0385,732.42236,352.65204C729.79645,352.26556,727.11566,351.8305,724.5331,351.30374C721.95056,350.77695,719.583,350.21475,717.5576,349.73654C715.5322,349.2583,713.96375,348.92038,713.3519,348.8627C712.4009,348.703,712.6445,349.12268,712.3053,349.0207 Z"/>
</g>
<g style="fill:rgb(255,255,255); fill-opacity:1.0; stroke-linejoin: miter">
<path d="M640.56036,531.7722C639.0298,535.46674,636.61285,543.5325,633.9591,552.44073C631.3054,561.34894,629.0946,571.08466,628.3252,581.59515C627.55585,592.1057,629.1521,603.27014,634.5299,614.4948C639.9077,625.71954,649.3368,636.6914,656.9099,642.82385C664.48303,648.9563,666.91705,650.4041,669.21967,651.5543C671.5223,652.7045,673.6837,653.5561,675.694,654.08954C677.70416,654.623,679.5345,654.8545,680.7755,655.05707C682.0165,655.2597,682.0165,655.2597,681.19653,655.095C681.19653,655.095,679.5788,654.6765,677.9251,653.81036C676.2714,652.9443,674.5259,651.8422,672.657,650.5182C670.788,649.19415,668.79266,647.62775,666.71936,645.87067C664.6461,644.1136,653.6666,632.66296,647.0952,621.98517C640.5238,611.3074,637.423,601.19275,636.3086,591.429C635.1942,581.6652,635.80115,572.0362,637.3031,562.6788C638.8051,553.32135,640.3986,544.3932,640.4052,540.0424C640.8896,531.81274,640.0826,535.65106,640.56036,531.7722 Z"/>
</g>
<g style="fill:url(#grad3); fill-opacity:1.0; stroke-linejoin: miter">
<path d="M-40.977165,129.90385L-40.98496,129.9695Q81.35475,263.57083,168.11308,416.74426Q209.024,486.6822,247.68083,571.7005Q263.19995,605.70197,278.46902,650.1469Q305.44647,736.1772,303.2997,740.5764Q303.99625,739.8023,305.6678,728.85095Q311.52457,678.9724,285.01123,590.2714Q255.32454,495.41046,206.61864,408.85614Q103.93529,234.3448,-40.977165,129.90385"/>
</g>
</g>
<defs>
<radialGradient id="grad0" gradientUnits="userSpaceOnUse" cx="436.07486" cy="671.82605" r="425.72806" >
<stop offset="0.0%" style="stop-color:rgb(79,0,90); stop-opacity:1.0" />
<stop offset="100.0%" style="stop-color:rgb(0,192,255); stop-opacity:1.0" />
</radialGradient>
<radialGradient id="grad1" gradientUnits="userSpaceOnUse" cx="377.56348" cy="513.94244" r="400.73624" >
<stop offset="0.0%" style="stop-color:rgb(79,0,90); stop-opacity:1.0" />
<stop offset="100.0%" style="stop-color:rgb(217,0,254); stop-opacity:1.0" />
</radialGradient>
<radialGradient id="grad2" gradientUnits="userSpaceOnUse" cx="584.1316" cy="183.97351" r="427.98746" >
<stop offset="0.0%" style="stop-color:rgb(79,0,90); stop-opacity:1.0" />
<stop offset="100.0%" style="stop-color:rgb(217,0,254); stop-opacity:1.0" />
</radialGradient>
<radialGradient id="grad3" gradientUnits="userSpaceOnUse" cx="-81.87897" cy="209.3728" r="690.30884" >
<stop offset="0.0%" style="stop-color:rgb(254,196,0); stop-opacity:1.0" />
<stop offset="100.0%" style="stop-color:rgb(254,0,71); stop-opacity:1.0" />
</radialGradient>
</defs>
</svg>